M48
INCH,LZ
;FILE_FORMAT=2:4
;TYPE=NON_PLATED
;Layer: NPTH_Through
;EasyEDA v6.5.23, 2023-04-24 17:16:31
;8c4d49fcd7fc4e44909a734d2420ee08,351801b383604bb389f78a6fc88bd684,10
;Gerber Generator version 0.2
;Holesize 1 = 0.0470 inch
T01C0.0470
;Holesize 2 = 0.0670 inch
T02C0.0670
;Holesize 3 = 0.1200 inch
T03C0.1200
;Holesize 4 = 0.1570 inch
T04C0.1570
;Holesize 5 = 0.1580 inch
T05C0.1580
%
G05
G90
T01
X006704Y028711
X009460Y028711
T02
X059640Y016777
X063605Y016255
X036059Y013835
X032059Y013835
X026397Y012270
X022397Y012270
X013069Y010270
X011069Y013734
X064435Y038840
X068401Y038318
X065266Y023601
X069232Y023079
X059106Y039541
X055140Y040063
X059057Y031983
X055091Y032505
X066493Y031004
X062527Y031526
X059007Y024425
X055042Y024947
X020750Y020156
X016750Y020156
X020750Y027656
X016750Y027656
X020750Y035156
X016750Y035156
X020750Y042656
X016750Y042656
X028250Y022031
X024250Y022031
X028250Y029531
X024250Y029531
X028250Y037031
X024250Y037031
X028250Y044531
X024250Y044531
X035750Y023906
X031750Y023906
X035750Y031406
X031750Y031406
X035750Y038906
X031750Y038906
X035750Y046406
X031750Y046406
X043250Y022031
X039250Y022031
X043250Y029531
X039250Y029531
X043250Y037031
X039250Y037031
X043250Y044531
X039250Y044531
X051522Y017845
X047556Y018368
X051572Y025404
X047606Y025926
X051621Y032962
X047655Y033484
X051670Y040520
X047705Y041042
X007039Y004211
X004211Y007039
X011883Y022130
X007883Y022130
T03
X065903Y013116
X056607Y014339
T04
X066686Y019064
X057390Y020288
T05
X061622Y016516
X034059Y013835
X024397Y012270
X012069Y012002
X066418Y038579
X067249Y023340
X057123Y039802
X057074Y032244
X064510Y031265
X057024Y024686
X018750Y020156
X018750Y027656
X018750Y035156
X018750Y042656
X026250Y022031
X026250Y029531
X026250Y037031
X026250Y044531
X033750Y023906
X033750Y031406
X033750Y038906
X033750Y046406
X041250Y022031
X041250Y029531
X041250Y037031
X041250Y044531
X049539Y018107
X049589Y025665
X049638Y033223
X049688Y040781
X005625Y005625
X009883Y022130
M30
