M48
INCH,LZ
;FILE_FORMAT=2:4
;TYPE=PLATED
;Layer: PTH_Through
;EasyEDA v6.5.23, 2023-04-24 17:16:31
;8c4d49fcd7fc4e44909a734d2420ee08,351801b383604bb389f78a6fc88bd684,10
;Gerber Generator version 0.2
;Holesize 1 = 0.0200 inch
T01C0.0200
;Holesize 2 = 0.0390 inch
T02C0.0390
;Holesize 3 = 0.0590 inch
T03C0.0590
%
G05
G90
T01
X007530Y029656G85X007137Y029656
X008711Y029656G85X008318Y029656
X010286Y029656G85X009893Y029656
X010680Y027767G85X010286Y027767
T02
X008899Y019177
X010868Y019177
X009883Y019177
X010868Y024886
X008899Y024886
X006656Y044062G85X006656Y044062
X006656Y043062G85X006656Y043062
X006656Y042062G85X006656Y042062
X006656Y041062G85X006656Y041062
X006656Y040062G85X006656Y040062
X006656Y039062G85X006656Y039062
X006656Y038062G85X006656Y038062
X006656Y037062G85X006656Y037062
X006656Y036062G85X006656Y036062
X006656Y035062G85X006656Y035062
X006656Y034062G85X006656Y034062
X006656Y033062G85X006656Y033062
X006656Y032062G85X006656Y032062
X012656Y032062G85X012656Y032062
X012656Y033062G85X012656Y033062
X012656Y034062G85X012656Y034062
X012656Y035062G85X012656Y035062
X012656Y036062G85X012656Y036062
X012656Y037062G85X012656Y037062
X012656Y038062G85X012656Y038062
X012656Y039062G85X012656Y039062
X012656Y040062G85X012656Y040062
X012656Y041062G85X012656Y041062
X012656Y042062G85X012656Y042062
X012656Y043062G85X012656Y043062
X012656Y044062G85X012656Y044062
T03
X062875Y018368
X060266Y017703
X032559Y014835
X035059Y015835
X022897Y013270
X025397Y014270
X012185Y013801
X014301Y012136
X067671Y040431
X065062Y039766
X068501Y025192
X065892Y024527
X055767Y040990
X058376Y041655
X055717Y033431
X058326Y034096
X063153Y032452
X065762Y033118
X055668Y025873
X058277Y026538
X017250Y021156
X019750Y022156
X017250Y028656
X019750Y029656
X017250Y036156
X019750Y037156
X017250Y043656
X019750Y044656
X024750Y023031
X027250Y024031
X024750Y030531
X027250Y031531
X024750Y038031
X027250Y039031
X024750Y045531
X027250Y046531
X032250Y024906
X034750Y025906
X032250Y032406
X034750Y033406
X032250Y039906
X034750Y040906
X032250Y047406
X034750Y048406
X039750Y023031
X042250Y024031
X039750Y030531
X042250Y031531
X039750Y038031
X042250Y039031
X039750Y045531
X042250Y046531
X048182Y019294
X050792Y019959
X048232Y026852
X050841Y027517
X048281Y034410
X050891Y035075
X048331Y041968
X050940Y042634
X005271Y007393
X007746Y006332
X008383Y023130
X010883Y024130
X012049Y021913G85X012049Y022346
X007718Y021913G85X007718Y022346
M30
