G04 Layer: BottomPasteMaskLayer*
G04 EasyEDA v6.5.23, 2023-04-24 17:16:31*
G04 8c4d49fcd7fc4e44909a734d2420ee08,351801b383604bb389f78a6fc88bd684,10*
G04 Gerber Generator version 0.2*
G04 Scale: 100 percent, Rotated: No, Reflected: No *
G04 Dimensions in inches *
G04 leading zeros omitted , absolute positions ,3 integer and 6 decimal *
%FSLAX36Y36*%
%MOIN*%

%AMMACRO1*21,1,$1,$2,0,0,$3*%
%ADD10MACRO1,0.0374X0.0354X172.4999*%
%ADD11MACRO1,0.0374X0.0354X0.0000*%
%ADD12MACRO1,0.0374X0.0354X90.0000*%
%ADD13MACRO1,0.0374X0.0354X-60.0020*%
%ADD14MACRO1,0.0374X0.0354X-60.0007*%
%ADD15MACRO1,0.0374X0.0354X-45.0032*%
%ADD16MACRO1,0.0374X0.0354X-45.0011*%

%LPD*%
D10*
G01*
X6430102Y2406206D03*
G01*
X6413915Y2283253D03*
G01*
X6148852Y3203081D03*
G01*
X6132665Y3080128D03*
G01*
X6336352Y3953081D03*
G01*
X6320165Y3830128D03*
G01*
X5398852Y4046831D03*
G01*
X5382665Y3923878D03*
G01*
X5398852Y3296831D03*
G01*
X5382665Y3173878D03*
G01*
X5398852Y2546831D03*
G01*
X5382665Y2423878D03*
G01*
X5867602Y1749956D03*
G01*
X5851415Y1627003D03*
G01*
X4648852Y1890581D03*
G01*
X4632665Y1767628D03*
G01*
X4648852Y2640581D03*
G01*
X4632665Y2517628D03*
G01*
X4648852Y3390581D03*
G01*
X4632665Y3267628D03*
G01*
X4649114Y4142564D03*
G01*
X4632926Y4019611D03*
D11*
G01*
X3796880Y2221246D03*
G01*
X3796880Y2097231D03*
G01*
X3796880Y2971246D03*
G01*
X3796880Y2847231D03*
G01*
X3796880Y3721246D03*
G01*
X3796880Y3597231D03*
G01*
X3796880Y4471246D03*
G01*
X3796880Y4347231D03*
G01*
X3046880Y2408746D03*
G01*
X3046880Y2284731D03*
G01*
X3046880Y3158746D03*
G01*
X3046880Y3034731D03*
G01*
X3046880Y3908746D03*
G01*
X3046880Y3784731D03*
G01*
X3046880Y4658746D03*
G01*
X3046880Y4534731D03*
G01*
X2296880Y2221246D03*
G01*
X2296880Y2097231D03*
G01*
X2296880Y2971246D03*
G01*
X2296880Y2847231D03*
G01*
X2296880Y3721246D03*
G01*
X2296880Y3597231D03*
G01*
X2296880Y4471246D03*
G01*
X2296880Y4347231D03*
G01*
X3093755Y1528753D03*
G01*
X3093755Y1652768D03*
G01*
X2109380Y1388128D03*
G01*
X2109380Y1512143D03*
G01*
X1546880Y4283746D03*
G01*
X1546880Y4159731D03*
G01*
X1545005Y3535621D03*
G01*
X1545005Y3411606D03*
D12*
G01*
X1610001Y2855625D03*
G01*
X1485987Y2855625D03*
G01*
X1610001Y2105625D03*
G01*
X1485987Y2105625D03*
D11*
G01*
X656255Y2268121D03*
G01*
X656255Y2144106D03*
D13*
G01*
X1209342Y1561251D03*
D14*
G01*
X1316741Y1623260D03*
D15*
G01*
X469670Y891542D03*
D16*
G01*
X557362Y979232D03*
M02*
