M48
INCH,LZ
;FILE_FORMAT=2:4
;TYPE=NON_PLATED
;Layer: NPTH_Through
;EasyEDA v6.5.23, 2023-04-24 17:17:17
;23e7ac7152a545cbaba16701c0d6254d,351801b383604bb389f78a6fc88bd684,10
;Gerber Generator version 0.2
;Holesize 1 = 0.0470 inch
T01C0.0470
;Holesize 2 = 0.0670 inch
T02C0.0670
;Holesize 3 = 0.1580 inch
T03C0.1580
%
G05
G90
T01
X-007638Y028711
X-010394Y028711
T02
X-012072Y013737
X-014072Y010273
X-023401Y012274
X-027401Y012274
X-033062Y013838
X-037062Y013838
X-061853Y031738
X-057887Y032260
X-062733Y024058
X-058767Y024580
X-062684Y016499
X-058718Y017022
X-056078Y040063
X-060044Y039541
X-063514Y039084
X-067480Y038562
X-040187Y044531
X-044188Y044531
X-040188Y037031
X-044187Y037031
X-040188Y029531
X-044188Y029531
X-040188Y022031
X-044187Y022031
X-032688Y023906
X-036688Y023906
X-032687Y031406
X-036688Y031406
X-032688Y038906
X-036688Y038906
X-032687Y046406
X-036687Y046406
X-025188Y022031
X-029188Y022031
X-025187Y029531
X-029188Y029531
X-025188Y037031
X-029188Y037031
X-025187Y044531
X-029187Y044531
X-017688Y020156
X-021688Y020156
X-017687Y027656
X-021688Y027656
X-017688Y035156
X-021688Y035156
X-017687Y042656
X-021687Y042656
X-048494Y018368
X-052459Y017845
X-048543Y025926
X-052509Y025404
X-048593Y033484
X-052558Y032962
X-005148Y007039
X-007977Y004211
X-008742Y022130
X-012742Y022130
X-048642Y041042
X-052608Y040520
T03
X-013072Y012005
X-025401Y012274
X-035062Y013838
X-059870Y031999
X-060750Y024319
X-060701Y016761
X-058061Y039802
X-065497Y038823
X-042188Y044531
X-042188Y037031
X-042188Y029531
X-042187Y022031
X-034688Y023906
X-034687Y031406
X-034688Y038906
X-034687Y046406
X-027188Y022031
X-027187Y029531
X-027188Y037031
X-027187Y044531
X-019688Y020156
X-019687Y027656
X-019688Y035156
X-019687Y042656
X-050477Y018107
X-050526Y025665
X-050576Y033223
X-006563Y005625
X-010742Y022130
X-050625Y040781
M30
