M48
INCH,LZ
;FILE_FORMAT=2:4
;TYPE=PLATED
;Layer: PTH_Through
;EasyEDA v6.5.23, 2023-04-24 17:17:17
;23e7ac7152a545cbaba16701c0d6254d,351801b383604bb389f78a6fc88bd684,10
;Gerber Generator version 0.2
;Holesize 1 = 0.0200 inch
T01C0.0200
;Holesize 2 = 0.0390 inch
T02C0.0390
;Holesize 3 = 0.0590 inch
T03C0.0590
%
G05
G90
T01
X-008465Y027767G85X-008071Y027767
X-009646Y027767G85X-009252Y027767
X-011220Y027767G85X-010827Y027767
X-011614Y029656G85X-011220Y029656
T02
X-011726Y019177
X-009757Y019177
X-010742Y019177
X-009757Y024886
X-011726Y024886
X-013500Y044062G85X-013500Y044062
X-013500Y043062G85X-013500Y043062
X-013500Y042062G85X-013500Y042062
X-013500Y041062G85X-013500Y041062
X-013500Y040062G85X-013500Y040062
X-013500Y039062G85X-013500Y039062
X-013500Y038062G85X-013500Y038062
X-013500Y037062G85X-013500Y037062
X-013500Y036062G85X-013500Y036062
X-013500Y035062G85X-013500Y035062
X-013500Y034062G85X-013500Y034062
X-013500Y033062G85X-013500Y033062
X-013500Y032062G85X-013500Y032062
X-007500Y032062G85X-007500Y032062
X-007500Y033062G85X-007500Y033062
X-007500Y034062G85X-007500Y034062
X-007500Y035062G85X-007500Y035062
X-007500Y036062G85X-007500Y036062
X-007500Y037062G85X-007500Y037062
X-007500Y038062G85X-007500Y038062
X-007500Y039062G85X-007500Y039062
X-007500Y040062G85X-007500Y040062
X-007500Y041062G85X-007500Y041062
X-007500Y042062G85X-007500Y042062
X-007500Y043062G85X-007500Y043062
X-007500Y044062G85X-007500Y044062
T03
X-014689Y011206
X-014305Y013871
X-026900Y013274
X-024400Y014274
X-036562Y014838
X-034062Y015838
X-059140Y034113
X-061488Y032795
X-060020Y026432
X-062368Y025114
X-059970Y018874
X-062319Y017556
X-059679Y040598
X-057330Y041916
X-067114Y039619
X-064766Y040937
X-043688Y045531
X-041188Y046531
X-043688Y038031
X-041188Y039031
X-043688Y030531
X-041188Y031531
X-043688Y023031
X-041188Y024031
X-036188Y024906
X-033688Y025906
X-036188Y032406
X-033688Y033406
X-036188Y039906
X-033688Y040906
X-036188Y047406
X-033688Y048406
X-028688Y023031
X-026188Y024031
X-028688Y030531
X-026188Y031531
X-028688Y038031
X-026188Y039031
X-028688Y045531
X-026188Y046531
X-021188Y021156
X-018688Y022156
X-021188Y028656
X-018688Y029656
X-021188Y036156
X-018688Y037156
X-021188Y043656
X-018688Y044656
X-052094Y018902
X-049746Y020220
X-052144Y026460
X-049796Y027778
X-052193Y034019
X-049845Y035336
X-008330Y005271
X-007270Y007746
X-012242Y023130
X-009742Y024130
X-052243Y041577
X-049895Y042895
X-008577Y021913G85X-008577Y022346
X-012907Y021913G85X-012907Y022346
M30
