G04 Layer: BottomSolderMaskLayer*
G04 EasyEDA v6.5.23, 2023-04-24 17:17:17*
G04 23e7ac7152a545cbaba16701c0d6254d,351801b383604bb389f78a6fc88bd684,10*
G04 Gerber Generator version 0.2*
G04 Scale: 100 percent, Rotated: No, Reflected: No *
G04 Dimensions in inches *
G04 leading zeros omitted , absolute positions ,3 integer and 6 decimal *
%FSLAX36Y36*%
%MOIN*%

%AMMACRO1*1,1,$1,$2,$3*1,1,$1,$4,$5*1,1,$1,0-$2,0-$3*1,1,$1,0-$4,0-$5*20,1,$1,$2,$3,$4,$5,0*20,1,$1,$4,$5,0-$2,0-$3,0*20,1,$1,0-$2,0-$3,0-$4,0-$5,0*20,1,$1,0-$4,0-$5,$2,$3,0*4,1,4,$2,$3,$4,$5,0-$2,0-$3,0-$4,0-$5,$2,$3,0*%
%AMMACRO2*1,1,$1,$2,$3*1,1,$1,$4,$5*20,1,$1,$2,$3,$4,$5,0*%
%ADD10MACRO1,0.004X-0.0007X-0.0257X0.0257X0.0007*%
%ADD11MACRO1,0.004X-0.0007X-0.0258X0.0258X0.0007*%
%ADD12MACRO1,0.004X0.006X-0.0251X0.0247X0.0073*%
%ADD13MACRO1,0.004X-0.0187X-0.0177X0.0187X-0.0177*%
%ADD14MACRO1,0.004X0.0187X0.0177X-0.0187X0.0177*%
%ADD15MACRO1,0.004X-0.0177X0.0187X-0.0177X-0.0187*%
%ADD16MACRO1,0.004X0.0162X0.02X-0.0209X0.0151*%
%ADD17MACRO2,0.0985X-0.0098X-0.017X0.0098X0.017*%
%ADD18MACRO2,0.1024X-0.0089X-0.0153X0.0089X0.0153*%
%ADD19O,0.137858X0.098488*%
%ADD20O,0.137858X0.102425*%
%ADD21MACRO2,0.1024X-0.0176X-0.0023X0.0176X0.0023*%
%ADD22MACRO2,0.0985X-0.0195X-0.0026X0.0195X0.0026*%
%ADD23MACRO2,0.0985X-0.0139X-0.0139X0.0139X0.0139*%
%ADD24MACRO2,0.1024X-0.0125X-0.0125X0.0125X0.0125*%
%ADD25C,0.0900*%
%ADD26O,0.08267799999999999X0.043308*%
%ADD27O,0.066992X0.098488*%
%ADD28O,0.08274X0.12604700000000002*%
%ADD29C,0.0740*%

%LPD*%
D10*
G01*
X-542790Y874665D03*
D11*
G01*
X-630482Y962357D03*
D12*
G01*
X-1282461Y1563127D03*
G01*
X-1389861Y1625134D03*
D13*
G01*
X-2223750Y1395628D03*
G01*
X-2223750Y1519643D03*
G01*
X-3183750Y1545628D03*
G01*
X-3183750Y1669643D03*
D14*
G01*
X-753750Y2275621D03*
G01*
X-753750Y2151606D03*
D15*
G01*
X-1705621Y2203125D03*
G01*
X-1581606Y2203125D03*
G01*
X-1705621Y2953125D03*
G01*
X-1581606Y2953125D03*
D14*
G01*
X-1640225Y3583141D03*
G01*
X-1640225Y3459126D03*
G01*
X-1640225Y4333141D03*
G01*
X-1640225Y4209126D03*
G01*
X-2390225Y2270641D03*
G01*
X-2390225Y2146626D03*
G01*
X-2390225Y3020641D03*
G01*
X-2390225Y2896626D03*
G01*
X-3140225Y2458141D03*
G01*
X-3140225Y2334126D03*
G01*
X-3890225Y2270641D03*
G01*
X-3890225Y2146626D03*
G01*
X-3140225Y3208141D03*
G01*
X-3140225Y3084126D03*
G01*
X-3890225Y3020641D03*
G01*
X-3890225Y2896626D03*
G01*
X-2390225Y3770641D03*
G01*
X-2390225Y3646626D03*
G01*
X-2390225Y4520641D03*
G01*
X-2390225Y4396626D03*
G01*
X-3140225Y3958141D03*
G01*
X-3140225Y3834126D03*
G01*
X-3140225Y4708141D03*
G01*
X-3140225Y4584126D03*
G01*
X-3890225Y3770641D03*
G01*
X-3890225Y3646626D03*
G01*
X-3890225Y4520641D03*
G01*
X-3890225Y4396626D03*
D16*
G01*
X-4742859Y1892565D03*
G01*
X-4726671Y1769611D03*
G01*
X-5774109Y1751940D03*
G01*
X-5757921Y1628986D03*
G01*
X-4742859Y2642565D03*
G01*
X-4726671Y2519611D03*
G01*
X-5774109Y2501940D03*
G01*
X-5757921Y2378986D03*
G01*
X-5680359Y3298815D03*
G01*
X-5664171Y3175861D03*
G01*
X-4742859Y3392565D03*
G01*
X-4726671Y3269611D03*
G01*
X-4742859Y4142565D03*
G01*
X-4726671Y4019611D03*
G01*
X-5492859Y4048815D03*
G01*
X-5476671Y3925861D03*
G01*
X-6242859Y3955065D03*
G01*
X-6226671Y3832111D03*
D17*
G01*
X-1468849Y1120630D03*
D18*
G01*
X-1430450Y1387140D03*
D19*
G01*
X-2690050Y1327350D03*
D20*
G01*
X-2440050Y1427350D03*
D19*
G01*
X-3656239Y1483829D03*
D20*
G01*
X-3406239Y1583829D03*
D21*
G01*
X-5913989Y3411269D03*
D22*
G01*
X-6148800Y3279500D03*
D21*
G01*
X-6001990Y2643210D03*
D22*
G01*
X-6236800Y2511440D03*
D21*
G01*
X-5997049Y1887390D03*
D22*
G01*
X-6231860Y1755620D03*
G01*
X-5967849Y4059790D03*
D21*
G01*
X-5733040Y4191569D03*
D22*
G01*
X-6711440Y3961890D03*
D21*
G01*
X-6476630Y4093669D03*
D19*
G01*
X-4368739Y4553119D03*
D20*
G01*
X-4118750Y4653119D03*
D19*
G01*
X-4368750Y3803119D03*
D20*
G01*
X-4118750Y3903119D03*
D19*
G01*
X-4368739Y3053119D03*
D20*
G01*
X-4118750Y3153119D03*
D19*
G01*
X-4368750Y2303119D03*
D20*
G01*
X-4118739Y2403119D03*
D19*
G01*
X-3618750Y2490619D03*
D20*
G01*
X-3368750Y2590619D03*
D19*
G01*
X-3618750Y3240630D03*
D20*
G01*
X-3368739Y3340619D03*
D19*
G01*
X-3618739Y3990619D03*
D20*
G01*
X-3368750Y4090619D03*
D19*
G01*
X-3618750Y4740619D03*
D20*
G01*
X-3368739Y4840619D03*
D19*
G01*
X-2868750Y2303119D03*
D20*
G01*
X-2618750Y2403119D03*
D19*
G01*
X-2868750Y3053130D03*
D20*
G01*
X-2618739Y3153119D03*
D19*
G01*
X-2868739Y3803119D03*
D20*
G01*
X-2618750Y3903119D03*
D19*
G01*
X-2868750Y4553119D03*
D20*
G01*
X-2618739Y4653119D03*
D19*
G01*
X-2118750Y2115619D03*
D20*
G01*
X-1868750Y2215619D03*
D19*
G01*
X-2118750Y2865619D03*
D20*
G01*
X-1868739Y2965619D03*
D19*
G01*
X-2118739Y3615619D03*
D20*
G01*
X-1868750Y3715619D03*
D19*
G01*
X-2118750Y4365619D03*
D20*
G01*
X-1868739Y4465619D03*
D22*
G01*
X-5209430Y1890219D03*
D21*
G01*
X-4974620Y2022000D03*
D22*
G01*
X-5214369Y2646040D03*
D21*
G01*
X-4979569Y2777819D03*
D22*
G01*
X-5219320Y3401859D03*
D21*
G01*
X-4984510Y3533640D03*
D23*
G01*
X-833020Y527139D03*
D24*
G01*
X-726959Y774619D03*
D25*
G01*
X-1224180Y2312959D03*
D20*
G01*
X-974180Y2412959D03*
D22*
G01*
X-5224270Y4157680D03*
D21*
G01*
X-4989459Y4289460D03*
D26*
G01*
X-826770Y2776660D03*
G01*
X-944879Y2776660D03*
G01*
X-1102359Y2776660D03*
G01*
X-1141729Y2965639D03*
D27*
G01*
X-1172600Y1917680D03*
G01*
X-975749Y1917680D03*
G01*
X-1074180Y1917680D03*
G01*
X-975749Y2488539D03*
G01*
X-1172600Y2488539D03*
D28*
G01*
X-857640Y2212950D03*
G01*
X-1290709Y2212950D03*
D29*
G01*
X-1350000Y4406239D03*
G01*
X-1350000Y4306239D03*
G01*
X-1350000Y4206239D03*
G01*
X-1350000Y4106239D03*
G01*
X-1350000Y4006239D03*
G01*
X-1350000Y3906239D03*
G01*
X-1350000Y3806239D03*
G01*
X-1350000Y3706239D03*
G01*
X-1350000Y3606239D03*
G01*
X-1350000Y3506239D03*
G01*
X-1350000Y3406239D03*
G01*
X-1350000Y3306239D03*
G01*
X-1350000Y3206239D03*
G01*
X-750000Y3206239D03*
G01*
X-750000Y3306239D03*
G01*
X-750000Y3406239D03*
G01*
X-750000Y3506239D03*
G01*
X-750000Y3606239D03*
G01*
X-750000Y3706239D03*
G01*
X-750000Y3806239D03*
G01*
X-750000Y3906239D03*
G01*
X-750000Y4006239D03*
G01*
X-750000Y4106239D03*
G01*
X-750000Y4206239D03*
G01*
X-750000Y4306239D03*
G01*
X-750000Y4406239D03*
M02*
