G04 Layer: BottomPasteMaskLayer*
G04 EasyEDA v6.5.23, 2023-04-24 17:17:17*
G04 23e7ac7152a545cbaba16701c0d6254d,351801b383604bb389f78a6fc88bd684,10*
G04 Gerber Generator version 0.2*
G04 Scale: 100 percent, Rotated: No, Reflected: No *
G04 Dimensions in inches *
G04 leading zeros omitted , absolute positions ,3 integer and 6 decimal *
%FSLAX36Y36*%
%MOIN*%

%AMMACRO1*21,1,$1,$2,0,0,$3*%
%ADD10MACRO1,0.0374X0.0354X45.0000*%
%ADD11MACRO1,0.0374X0.0354X59.9999*%
%ADD12MACRO1,0.0374X0.0354X0.0000*%
%ADD13MACRO1,0.0374X0.0354X-90.0000*%
%ADD14MACRO1,0.0374X0.0354X-172.4999*%

%LPD*%
D10*
G01*
X-542790Y874665D03*
G01*
X-630481Y962357D03*
D11*
G01*
X-1282461Y1563127D03*
G01*
X-1389861Y1625134D03*
D12*
G01*
X-2223750Y1395628D03*
G01*
X-2223750Y1519643D03*
G01*
X-3183750Y1545628D03*
G01*
X-3183750Y1669643D03*
G01*
X-753750Y2275621D03*
G01*
X-753750Y2151606D03*
D13*
G01*
X-1705621Y2203125D03*
G01*
X-1581606Y2203125D03*
G01*
X-1705621Y2953125D03*
G01*
X-1581606Y2953125D03*
D12*
G01*
X-1640225Y3583141D03*
G01*
X-1640225Y3459126D03*
G01*
X-1640225Y4333141D03*
G01*
X-1640225Y4209126D03*
G01*
X-2390225Y2270641D03*
G01*
X-2390225Y2146626D03*
G01*
X-2390225Y3020641D03*
G01*
X-2390225Y2896626D03*
G01*
X-3140225Y2458141D03*
G01*
X-3140225Y2334126D03*
G01*
X-3890225Y2270641D03*
G01*
X-3890225Y2146626D03*
G01*
X-3140225Y3208141D03*
G01*
X-3140225Y3084126D03*
G01*
X-3890225Y3020641D03*
G01*
X-3890225Y2896626D03*
G01*
X-2390225Y3770641D03*
G01*
X-2390225Y3646626D03*
G01*
X-2390225Y4520641D03*
G01*
X-2390225Y4396626D03*
G01*
X-3140225Y3958141D03*
G01*
X-3140225Y3834126D03*
G01*
X-3140225Y4708141D03*
G01*
X-3140225Y4584126D03*
G01*
X-3890225Y3770641D03*
G01*
X-3890225Y3646626D03*
G01*
X-3890225Y4520641D03*
G01*
X-3890225Y4396626D03*
D14*
G01*
X-4742859Y1892565D03*
G01*
X-4726671Y1769611D03*
G01*
X-5774109Y1751940D03*
G01*
X-5757921Y1628986D03*
G01*
X-4742859Y2642565D03*
G01*
X-4726671Y2519611D03*
G01*
X-5774109Y2501940D03*
G01*
X-5757921Y2378986D03*
G01*
X-5680359Y3298815D03*
G01*
X-5664171Y3175861D03*
G01*
X-4742859Y3392565D03*
G01*
X-4726671Y3269611D03*
G01*
X-4742859Y4142565D03*
G01*
X-4726671Y4019611D03*
G01*
X-5492859Y4048815D03*
G01*
X-5476671Y3925861D03*
G01*
X-6242859Y3955065D03*
G01*
X-6226671Y3832111D03*
M02*
